<svg width="38" height="38" viewBox="0 0 38 38" fill="none" xmlns="http://www.w3.org/2000/svg">
<path d="M12.8175 21.2653C13.2296 20.7946 12.8939 20.0595 12.2666 20.0595H10.3886C10.3761 19.8733 10.3697 19.6867 10.3695 19.5C10.3695 14.8411 14.1762 11.0508 18.8553 11.0508C21.1039 11.0508 23.1507 11.9264 24.6707 13.3528L27.3189 10.2681C25.0007 8.15658 22.0174 7 18.8553 7C15.502 7 12.3494 8.30026 9.97823 10.6612C7.60711 13.0221 6.30122 16.1611 6.30122 19.5C6.30122 19.6872 6.30592 19.8736 6.31409 20.0595H4.73223C4.10497 20.0595 3.76916 20.7945 4.18138 21.2653L7.74985 25.3409L8.49939 26.1969L11.1905 23.1234L12.8175 21.2653ZM33.5293 18.8875L30.8677 15.8476L29.2113 13.9559L26.8463 16.6569L24.8933 18.8875C24.4811 19.3583 24.8169 20.0933 25.4441 20.0933H27.3199C27.0131 24.4765 23.3341 27.9492 18.8554 27.9492C16.9003 27.9492 15.0978 27.2872 13.6614 26.1768L11.013 29.2617C13.2316 31.0358 15.9689 32 18.8554 32C22.2087 32 25.3613 30.6998 27.7325 28.3388C29.9627 26.1183 31.2501 23.2094 31.3954 20.0934H32.9785C33.6057 20.0933 33.9415 19.3583 33.5293 18.8875Z" fill="url(#paint0_linear_2002_56)"/>
<defs>
<linearGradient id="paint0_linear_2002_56" x1="4" y1="19.5" x2="33.7107" y2="19.5" gradientUnits="userSpaceOnUse">
<stop stop-color="#EA32D9"/>
<stop offset="1" stop-color="#004BED"/>
</linearGradient>
</defs>
</svg>
