<svg width="38" height="38" viewBox="0 0 38 38" fill="none" xmlns="http://www.w3.org/2000/svg">
<path d="M30.8415 7H7.67074C7.33397 7 7.06098 7.27299 7.06098 7.60976V11.2683C7.06098 11.6051 7.33397 11.8781 7.67074 11.8781H30.8415C31.1782 11.8781 31.4512 11.6051 31.4512 11.2683V7.60976C31.4512 7.27299 31.1782 7 30.8415 7ZM30.8415 13.7073H25.3536C25.0169 13.7073 24.7439 13.9803 24.7439 14.3171V17.9756C24.7439 18.3124 25.0169 18.5854 25.3536 18.5854H30.8415C31.1782 18.5854 31.4512 18.3124 31.4512 17.9756V14.3171C31.4512 13.9803 31.1782 13.7073 30.8415 13.7073ZM30.8415 20.4147H25.3536C25.0169 20.4147 24.7439 20.6877 24.7439 21.0244V24.683C24.7439 25.0197 25.0169 25.2927 25.3536 25.2927H30.8415C31.1782 25.2927 31.4512 25.0197 31.4512 24.683V21.0244C31.4512 20.6877 31.1782 20.4147 30.8415 20.4147ZM30.8415 27.1219H25.3536C25.0169 27.1219 24.7439 27.3949 24.7439 27.7317V31.3902C24.7439 31.727 25.0169 32 25.3536 32H30.8415C31.1782 32 31.4512 31.727 31.4512 31.3902V27.7317C31.4512 27.3949 31.1782 27.1219 30.8415 27.1219ZM22 13.7073H7.67074C7.33397 13.7073 7.06098 13.9803 7.06098 14.3171V24.6829C7.06098 25.0197 7.33397 25.2927 7.67074 25.2927H22C22.3368 25.2927 22.6098 25.0197 22.6098 24.6829V14.3171C22.6098 13.9803 22.3368 13.7073 22 13.7073ZM7.60976 28.9512H16.878C17.2148 28.9512 17.4878 28.6782 17.4878 28.3415C17.4878 28.0047 17.2148 27.7317 16.878 27.7317H7.60976C7.27299 27.7317 7 28.0047 7 28.3415C7 28.6782 7.27299 28.9512 7.60976 28.9512ZM21.7561 30.7805H7.60976C7.27299 30.7805 7 31.0535 7 31.3902C7 31.727 7.27299 32 7.60976 32H21.7561C22.0929 32 22.3658 31.727 22.3658 31.3902C22.3658 31.0535 22.0929 30.7805 21.7561 30.7805Z" fill="url(#paint0_linear_2002_28)"/>
<defs>
<linearGradient id="paint0_linear_2002_28" x1="7" y1="19.5" x2="31.4512" y2="19.5" gradientUnits="userSpaceOnUse">
<stop stop-color="#EA32D9"/>
<stop offset="1" stop-color="#004BED"/>
</linearGradient>
</defs>
</svg>
