<svg width="38" height="38" viewBox="0 0 38 38" fill="none" xmlns="http://www.w3.org/2000/svg">
<path d="M13.3729 27.4677C13.3729 25.8589 12.059 24.5507 10.4433 24.5507C8.82755 24.5507 7.51365 25.8589 7.51365 27.4677V28.9262C7.51365 29.7302 6.80751 30.4333 6 30.4333V31.8919H8.97847C11.4017 31.8919 13.3729 29.8805 13.3729 27.4677ZM18.2588 13.1062C17.8679 13.2109 17.6356 13.6094 17.7409 13.9993C17.8419 14.3743 18.2284 14.621 18.6379 14.5148C19.0314 14.4094 19.2599 14.0089 19.1557 13.6218C19.0499 13.2306 18.6454 13.0024 18.2588 13.1062ZM14.1154 18.6404C14.504 18.7431 14.9062 18.5179 15.0123 18.1248C15.118 17.7319 14.8826 17.3355 14.4951 17.2318C14.2874 17.176 14.2305 17.218 14.0836 17.2657C14.0919 17.7052 14.0977 18.1612 14.1008 18.6333C14.1061 18.6348 14.1099 18.639 14.1154 18.6404ZM22.1883 24.8918C22.0824 24.4996 21.6782 24.273 21.2914 24.3769C20.8938 24.4834 20.6702 24.8873 20.7736 25.2699C20.8781 25.658 21.2757 25.8874 21.6705 25.7855C22.0614 25.6808 22.2937 25.2816 22.1883 24.8918ZM24.6259 15.8366C24.9113 15.5518 24.9113 15.0889 24.6259 14.8047C24.3404 14.5204 23.8763 14.5192 23.5895 14.8047C23.3041 15.0889 23.3041 15.5525 23.5902 15.8366C23.8749 16.1201 24.3398 16.1201 24.6259 15.8366Z" fill="url(#paint0_linear_2002_32)"/>
<path d="M20.0078 8.46866C17.6018 8.55501 15.3932 9.50201 13.6328 10.7043C13.8301 12.0417 13.9695 13.7063 14.0437 15.7649C14.318 15.7324 14.5984 15.7496 14.8731 15.8232C16.0468 16.1357 16.7425 17.3337 16.4273 18.5023C16.1616 19.4908 15.2648 20.1246 14.3087 20.1246C14.2384 20.1246 14.1683 20.1036 14.0979 20.0969C14.0891 21.2633 14.0625 22.4174 14.012 23.5195C14.7621 23.8298 15.3485 24.2432 15.7313 24.7786C16.5066 25.8633 16.3 27.1352 16.2184 27.4998C15.9468 28.711 16.664 29.944 17.8928 30.1797C18.5802 30.3111 19.2785 30.3774 19.9785 30.3777C26.0023 30.3777 31.049 25.5057 30.9999 19.3584C30.9486 13.1236 25.5299 8.2615 20.0078 8.46866ZM22.5534 13.7735C23.4117 12.9204 24.805 12.9204 25.6618 13.7735C26.5187 14.6267 26.5187 16.0147 25.6618 16.8679C24.8051 17.7195 23.4109 17.7204 22.5541 16.8686C21.6979 16.0147 21.6979 14.6267 22.5534 13.7735ZM16.3264 14.376C16.0147 13.2231 16.6946 12.013 17.8799 11.6976C19.045 11.3864 20.256 12.0786 20.5707 13.2444C20.8852 14.4106 20.1911 15.6106 19.0172 15.9235C17.8462 16.236 16.6411 15.5477 16.3264 14.376ZM22.0498 27.1943C20.8791 27.5065 19.6731 26.8123 19.3591 25.6475C19.0445 24.4812 19.7386 23.2812 20.9126 22.9683C22.0915 22.6561 23.2901 23.3495 23.6033 24.5159C23.9188 25.6839 23.2213 26.8824 22.0498 27.1943ZM27.7467 21.5219C27.433 22.6905 26.2269 23.3822 25.056 23.0687C23.8854 22.7567 23.1866 21.5604 23.5025 20.3895C23.8195 19.2102 25.0327 18.5331 26.1932 18.8427C27.3641 19.1554 28.0608 20.3575 27.7467 21.5219Z" fill="url(#paint1_linear_2002_32)"/>
<path d="M25.814 20.2514C25.4303 20.1484 25.0241 20.3709 24.917 20.767C24.8113 21.1599 25.0467 21.5563 25.4342 21.66C25.8352 21.7632 26.2279 21.5291 26.3318 21.1444C26.4362 20.7563 26.2037 20.3554 25.814 20.2514ZM12.6317 20.1752C12.6338 19.9312 12.6406 19.691 12.6406 19.4459C12.6406 13.7907 12.2593 7 10.4433 7C8.62734 7 8.24609 13.7907 8.24609 19.4459C8.24609 19.691 8.25288 19.9312 8.25493 20.1752H12.6317ZM10.4433 23.0922C11.2065 23.0922 11.9141 23.3043 12.5401 23.6464C12.5722 22.9758 12.5964 22.3048 12.6128 21.6337H8.27388C8.29077 22.3177 8.31489 22.9919 8.34658 23.6464C8.9726 23.3042 9.68016 23.0922 10.4433 23.0922Z" fill="url(#paint2_linear_2002_32)"/>
<defs>
<linearGradient id="paint0_linear_2002_32" x1="6" y1="19.4459" x2="31.0003" y2="19.4459" gradientUnits="userSpaceOnUse">
<stop stop-color="#EA32D9"/>
<stop offset="1" stop-color="#004BED"/>
</linearGradient>
<linearGradient id="paint1_linear_2002_32" x1="6" y1="19.4459" x2="31.0003" y2="19.4459" gradientUnits="userSpaceOnUse">
<stop stop-color="#EA32D9"/>
<stop offset="1" stop-color="#004BED"/>
</linearGradient>
<linearGradient id="paint2_linear_2002_32" x1="6" y1="19.4459" x2="31.0003" y2="19.4459" gradientUnits="userSpaceOnUse">
<stop stop-color="#EA32D9"/>
<stop offset="1" stop-color="#004BED"/>
</linearGradient>
</defs>
</svg>
