<svg width="38" height="38" viewBox="0 0 38 38" fill="none" xmlns="http://www.w3.org/2000/svg">
<path d="M19.4999 11.7403C17.9652 11.7403 16.4649 12.1954 15.1889 13.048C13.9128 13.9007 12.9182 15.1126 12.3309 16.5305C11.7436 17.9484 11.5899 19.5086 11.8893 21.0138C12.1887 22.5191 12.9278 23.9017 14.013 24.9869C15.0982 26.0721 16.4809 26.8112 17.9861 27.1106C19.4913 27.41 21.0515 27.2563 22.4694 26.669C23.8873 26.0817 25.0992 25.0871 25.9519 23.811C26.8045 22.535 27.2596 21.0347 27.2596 19.5C27.2572 17.4427 26.4389 15.4704 24.9842 14.0157C23.5295 12.561 21.5572 11.7427 19.4999 11.7403ZM15.189 21.6555C15.4177 21.6555 15.637 21.5646 15.7986 21.4029C15.9603 21.2412 16.0512 21.0219 16.0512 20.7933C16.0512 20.6789 16.0966 20.5693 16.1774 20.4884C16.2583 20.4076 16.3679 20.3622 16.4823 20.3622C16.5966 20.3622 16.7063 20.4076 16.7871 20.4884C16.8679 20.5693 16.9134 20.6789 16.9134 20.7933C16.9134 21.2506 16.7317 21.6892 16.4083 22.0126C16.0849 22.336 15.6463 22.5176 15.189 22.5176C14.7317 22.5176 14.2931 22.336 13.9697 22.0126C13.6463 21.6892 13.4646 21.2506 13.4646 20.7933V18.2067C13.4646 17.7494 13.6463 17.3108 13.9697 16.9874C14.2931 16.664 14.7317 16.4823 15.189 16.4823C15.6463 16.4823 16.0849 16.664 16.4083 16.9874C16.7317 17.3108 16.9134 17.7494 16.9134 18.2067C16.9134 18.321 16.8679 18.4307 16.7871 18.5115C16.7063 18.5924 16.5966 18.6378 16.4823 18.6378C16.3679 18.6378 16.2583 18.5924 16.1774 18.5115C16.0966 18.4307 16.0512 18.321 16.0512 18.2067C16.0512 17.978 15.9603 17.7587 15.7986 17.597C15.637 17.4354 15.4177 17.3445 15.189 17.3445C14.9603 17.3445 14.741 17.4354 14.5793 17.597C14.4176 17.7587 14.3268 17.978 14.3268 18.2067V20.7933C14.3268 21.0219 14.4176 21.2412 14.5793 21.4029C14.741 21.5646 14.9603 21.6555 15.189 21.6555ZM21.2243 22.0865C21.2243 22.2009 21.1789 22.3105 21.098 22.3914C21.0172 22.4722 20.9075 22.5176 20.7932 22.5176C20.6789 22.5176 20.5692 22.4722 20.4884 22.3914C20.4075 22.3105 20.3621 22.2009 20.3621 22.0865V19.2909L19.9039 20.5139C19.8732 20.5963 19.818 20.6673 19.7458 20.7174C19.6736 20.7675 19.5878 20.7944 19.4999 20.7944C19.412 20.7944 19.3262 20.7675 19.254 20.7174C19.1818 20.6673 19.1267 20.5963 19.096 20.5139L18.6377 19.2909V22.0865C18.6377 22.2009 18.5923 22.3105 18.5115 22.3914C18.4306 22.4722 18.321 22.5176 18.2066 22.5176C18.0923 22.5176 17.9827 22.4722 17.9018 22.3914C17.821 22.3105 17.7756 22.2009 17.7756 22.0865V16.9134C17.7753 16.8123 17.8106 16.7142 17.8753 16.6365C17.94 16.5587 18.03 16.5062 18.1296 16.4881C18.2291 16.47 18.3318 16.4875 18.4198 16.5375C18.5077 16.5875 18.5752 16.6669 18.6106 16.7617L19.4999 19.1344L20.3893 16.7634C20.4246 16.6688 20.492 16.5895 20.5797 16.5395C20.6675 16.4894 20.77 16.4718 20.8694 16.4897C20.9689 16.5076 21.0589 16.5598 21.1237 16.6372C21.1886 16.7146 21.2242 16.8124 21.2243 16.9134V22.0865ZM25.5352 18.2067C25.5352 18.321 25.4898 18.4307 25.409 18.5115C25.3281 18.5924 25.2185 18.6378 25.1041 18.6378C24.9898 18.6378 24.8802 18.5924 24.7993 18.5115C24.7185 18.4307 24.6731 18.321 24.6731 18.2067C24.6731 18.0362 24.6225 17.8695 24.5277 17.7277C24.433 17.5859 24.2984 17.4754 24.1408 17.4101C23.9833 17.3449 23.8099 17.3278 23.6427 17.3611C23.4754 17.3944 23.3218 17.4765 23.2012 17.597C23.0806 17.7176 22.9985 17.8713 22.9652 18.0385C22.932 18.2057 22.949 18.3791 23.0143 18.5366C23.0796 18.6942 23.1901 18.8288 23.3319 18.9236C23.4736 19.0183 23.6403 19.0689 23.8109 19.0689C24.1519 19.0689 24.4853 19.17 24.7689 19.3595C25.0524 19.549 25.2735 19.8183 25.404 20.1334C25.5345 20.4485 25.5686 20.7952 25.5021 21.1297C25.4356 21.4642 25.2713 21.7714 25.0302 22.0126C24.789 22.2537 24.4818 22.418 24.1473 22.4845C23.8128 22.551 23.4661 22.5169 23.151 22.3864C22.8359 22.2559 22.5666 22.0349 22.3771 21.7513C22.1876 21.4677 22.0865 21.1343 22.0865 20.7933C22.0865 20.6789 22.1319 20.5693 22.2128 20.4884C22.2936 20.4076 22.4033 20.3622 22.5176 20.3622C22.6319 20.3622 22.7416 20.4076 22.8224 20.4884C22.9033 20.5693 22.9487 20.6789 22.9487 20.7933C22.9487 20.9638 22.9992 21.1305 23.094 21.2723C23.1887 21.4141 23.3234 21.5246 23.4809 21.5898C23.6385 21.6551 23.8118 21.6722 23.9791 21.6389C24.1463 21.6056 24.2999 21.5235 24.4205 21.4029C24.5411 21.2823 24.6232 21.1287 24.6565 20.9615C24.6898 20.7942 24.6727 20.6209 24.6074 20.4633C24.5422 20.3058 24.4317 20.1711 24.2899 20.0764C24.1481 19.9816 23.9814 19.9311 23.8109 19.9311C23.4698 19.9311 23.1364 19.8299 22.8529 19.6405C22.5693 19.451 22.3483 19.1817 22.2177 18.8666C22.0872 18.5515 22.0531 18.2048 22.1196 17.8703C22.1862 17.5358 22.3504 17.2285 22.5915 16.9874C22.8327 16.7462 23.14 16.582 23.4745 16.5155C23.809 16.4489 24.1557 16.4831 24.4708 16.6136C24.7858 16.7441 25.0552 16.9651 25.2446 17.2487C25.4341 17.5323 25.5352 17.8657 25.5352 18.2067Z" fill="url(#paint0_linear_2002_40)"/>
<path d="M31.9392 18.3279C31.918 18.162 31.8435 18.0075 31.7269 17.8877C31.6102 17.7679 31.4578 17.6892 31.2926 17.6635L29.6307 17.3919C29.3672 16.1223 28.8659 14.914 28.1533 13.8307L29.1341 12.4598C29.2334 12.3248 29.2863 12.1612 29.2849 11.9936C29.2835 11.826 29.2279 11.6633 29.1263 11.5299C28.8801 11.226 28.6167 10.9364 28.3374 10.6626C28.0618 10.3852 27.7723 10.1219 27.4701 9.87367C27.3367 9.77212 27.174 9.71648 27.0064 9.71508C26.8388 9.71368 26.6752 9.7666 26.5402 9.86591L25.1693 10.8467C24.086 10.1341 22.8777 9.63279 21.608 9.36929L21.336 7.70915C21.3105 7.54393 21.232 7.39148 21.1122 7.27483C20.9924 7.15819 20.838 7.08366 20.6721 7.06251C19.8929 6.97916 19.1071 6.97916 18.3279 7.06251C18.162 7.08366 18.0076 7.15819 17.8878 7.27483C17.768 7.39148 17.6895 7.54393 17.664 7.70915L17.3919 9.36929C16.1223 9.63279 14.914 10.1341 13.8307 10.8467L12.4598 9.86591C12.3248 9.7666 12.1612 9.71368 11.9936 9.71508C11.826 9.71648 11.6633 9.77212 11.5299 9.87367C11.2277 10.1219 10.9382 10.3852 10.6626 10.6626C10.3833 10.9364 10.1199 11.226 9.87367 11.5299C9.77212 11.6633 9.71648 11.826 9.71508 11.9936C9.71368 12.1612 9.7666 12.3248 9.86591 12.4598L10.8467 13.8307C10.1341 14.914 9.63279 16.1223 9.36929 17.3919L7.70915 17.6635C7.54392 17.6892 7.3915 17.7679 7.27487 17.8877C7.15824 18.0075 7.08371 18.162 7.06251 18.3279C6.97916 19.1071 6.97916 19.8929 7.06251 20.6721C7.08499 20.8375 7.15996 20.9912 7.27637 21.1107C7.39278 21.2302 7.54448 21.3092 7.70915 21.336L9.36929 21.608C9.63279 22.8777 10.1341 24.086 10.8467 25.1693L9.86591 26.5402C9.7666 26.6752 9.71368 26.8388 9.71508 27.0064C9.71648 27.174 9.77212 27.3367 9.87367 27.4701C10.1219 27.7723 10.3852 28.0618 10.6626 28.3374C10.9371 28.616 11.2265 28.8795 11.5295 29.1268C11.6621 29.23 11.8251 29.2867 11.9931 29.2881C12.1612 29.2895 12.325 29.2355 12.4594 29.1345L13.8303 28.1538C14.9137 28.8663 16.1222 29.3674 17.3919 29.6307L17.664 31.2908C17.6895 31.4561 17.768 31.6085 17.8878 31.7252C18.0076 31.8418 18.162 31.9163 18.3279 31.9375C19.1071 32.0208 19.8929 32.0208 20.6721 31.9375C20.838 31.9163 20.9924 31.8418 21.1122 31.7252C21.232 31.6085 21.3105 31.4561 21.336 31.2908L21.608 29.6307C22.8777 29.3672 24.086 28.8659 25.1693 28.1533L26.5402 29.1341C26.6745 29.2351 26.8384 29.2891 27.0064 29.2877C27.1745 29.2863 27.3374 29.2296 27.4701 29.1263C27.7732 28.8792 28.0627 28.6158 28.3374 28.3374C28.615 28.0619 28.8784 27.7726 29.1268 27.4705C29.2283 27.3371 29.284 27.1745 29.2854 27.0068C29.2868 26.8392 29.2338 26.6757 29.1345 26.5406L28.1538 25.1697C28.8663 24.0863 29.3674 22.8778 29.6307 21.608L31.2908 21.336C31.4555 21.3092 31.6072 21.2302 31.7236 21.1107C31.84 20.9912 31.915 20.8375 31.9375 20.6721C32.0208 19.8929 32.0208 19.1071 31.9375 18.3279H31.9392ZM19.5 28.1219C17.7948 28.1219 16.1278 27.6162 14.7099 26.6688C13.2921 25.7214 12.187 24.3749 11.5344 22.7994C10.8819 21.224 10.7111 19.4904 11.0438 17.818C11.3765 16.1455 12.1976 14.6092 13.4034 13.4034C14.6092 12.1976 16.1455 11.3765 17.818 11.0438C19.4904 10.7111 21.224 10.8819 22.7994 11.5344C24.3749 12.187 25.7214 13.2921 26.6688 14.7099C27.6162 16.1278 28.1219 17.7948 28.1219 19.5C28.1193 21.7859 27.21 23.9773 25.5937 25.5937C23.9773 27.21 21.7859 28.1193 19.5 28.1219Z" fill="url(#paint1_linear_2002_40)"/>
<defs>
<linearGradient id="paint0_linear_2002_40" x1="7" y1="19.5" x2="32" y2="19.5" gradientUnits="userSpaceOnUse">
<stop stop-color="#EA32D9"/>
<stop offset="1" stop-color="#004BED"/>
</linearGradient>
<linearGradient id="paint1_linear_2002_40" x1="7" y1="19.5" x2="32" y2="19.5" gradientUnits="userSpaceOnUse">
<stop stop-color="#EA32D9"/>
<stop offset="1" stop-color="#004BED"/>
</linearGradient>
</defs>
</svg>
