<svg width="38" height="38" viewBox="0 0 38 38" fill="none" xmlns="http://www.w3.org/2000/svg">
<path d="M22.1878 16.9167L20.1384 18.4584C19.9392 18.325 19.7028 18.25 19.4497 18.25C18.7652 18.25 18.2051 18.8125 18.2051 19.5C18.2051 20.1875 18.7652 20.75 19.4497 20.75C20.1342 20.75 20.6943 20.1875 20.6943 19.5C20.6943 19.3709 20.6694 19.2459 20.6321 19.1292L22.6857 17.5834C22.8682 17.4459 22.9056 17.1834 22.7687 17C22.6317 16.8167 22.3704 16.7792 22.1878 16.9167Z" fill="url(#paint0_linear_2002_45)"/>
<path d="M30.9131 15.9542L29.1582 15.6333C29.013 15.6083 28.9384 15.5083 28.9052 15.4542C28.872 15.4 28.8305 15.2833 28.8844 15.1417L29.6768 13.075C29.8469 12.6333 29.7432 12.1292 29.4072 11.7958L27.1171 9.49583C26.9539 9.33138 26.7465 9.2182 26.5204 9.17011C26.2942 9.12201 26.059 9.14109 25.8434 9.225L23.7857 10.0208C23.6446 10.075 23.5326 10.0292 23.4745 10C23.4277 9.97374 23.3874 9.93728 23.3565 9.89329C23.3257 9.8493 23.305 9.79891 23.2961 9.74583L22.9767 7.9875C22.9269 7.71097 22.7821 7.46072 22.5676 7.28029C22.3531 7.09986 22.0824 7.00068 21.8026 7H17.0897C16.513 7 16.0193 7.41667 15.9156 7.9875L15.5961 9.74583C15.5712 9.89167 15.4717 9.96667 15.4177 10C15.3638 10.0333 15.2476 10.075 15.1066 10.0208L13.0488 9.225C12.8333 9.14082 12.598 9.12161 12.3718 9.16971C12.1456 9.21782 11.9382 9.33115 11.7752 9.49583L9.48508 11.7958C9.15318 12.1292 9.04531 12.6333 9.21541 13.075L10.0078 15.1417C10.0617 15.2833 10.0161 15.3958 9.98707 15.4542C9.95388 15.5083 9.88335 15.6083 9.734 15.6333L7.98324 15.9542C7.7079 16.0042 7.45873 16.1495 7.27908 16.365C7.09943 16.5804 7.00068 16.8523 7 17.1333V21.8667C7 22.4458 7.41487 22.9417 7.98324 23.0458L9.73815 23.3667C9.88335 23.3917 9.95803 23.4917 9.99122 23.5458C10.0244 23.6 10.0659 23.7167 10.012 23.8583L9.21956 25.925C9.04946 26.3667 9.15318 26.8708 9.48922 27.2042L11.7793 29.5042C11.9425 29.6686 12.1498 29.7818 12.376 29.8299C12.6022 29.878 12.8374 29.8589 13.053 29.775L15.1107 28.9792C15.2518 28.925 15.3638 28.9708 15.4219 29C15.4758 29.0333 15.5754 29.1042 15.6003 29.2542L15.9197 31.0125C15.9695 31.289 16.1143 31.5393 16.3288 31.7197C16.5433 31.9001 16.814 31.9993 17.0938 32H21.8067C22.3834 32 22.8771 31.5833 22.9808 31.0125L23.3003 29.25C23.3252 29.1042 23.4247 29.0292 23.4787 28.9958C23.5326 28.9625 23.6488 28.9208 23.7898 28.975L25.8476 29.7708C26.2873 29.9417 26.7893 29.8375 27.1212 29.5L29.4113 27.2C29.7432 26.8667 29.8511 26.3625 29.681 25.9208L28.8886 23.8542C28.8693 23.8037 28.8612 23.7496 28.8648 23.6956C28.8684 23.6417 28.8836 23.5891 28.9093 23.5417C28.9425 23.4875 29.013 23.3875 29.1624 23.3625L30.9131 23.0417C31.1885 22.9917 31.4377 22.8463 31.6173 22.6308C31.797 22.4154 31.8957 22.1435 31.8964 21.8625V17.1292C31.8964 16.55 31.4815 16.0542 30.9131 15.95V15.9542ZM27.644 20.75C27.3558 22.6595 26.414 24.4084 24.9805 25.6958C24.9349 25.7375 24.8892 25.7833 24.8436 25.8208C24.7191 25.9292 24.5864 26.0292 24.4578 26.1292C24.3831 26.1875 24.3084 26.2417 24.2337 26.2958C24.1134 26.3833 23.989 26.4625 23.8645 26.5417C23.7691 26.6 23.6737 26.6625 23.5782 26.7167C23.3515 26.8481 23.1189 26.969 22.8812 27.0792C22.7651 27.1333 22.6531 27.1833 22.5328 27.2292C22.4041 27.2792 22.2755 27.3292 22.1428 27.3708C22.0308 27.4083 21.9187 27.45 21.8067 27.4833C21.6615 27.525 21.5122 27.5625 21.367 27.5958C21.2633 27.6208 21.1554 27.65 21.0517 27.6708C20.8816 27.7042 20.7073 27.7292 20.5331 27.75C20.4418 27.7625 20.3547 27.7792 20.2634 27.7875C19.9979 27.8125 19.7282 27.8292 19.4544 27.8292C19.1806 27.8292 18.9109 27.8125 18.6454 27.7875C18.5541 27.7792 18.467 27.7625 18.3758 27.75C18.2015 27.7292 18.0273 27.7042 17.8572 27.6708C17.7493 27.65 17.6456 27.6208 17.5419 27.5958C17.3925 27.5625 17.2473 27.525 17.1021 27.4833C16.9901 27.45 16.8781 27.4083 16.7661 27.3708C16.6333 27.325 16.5047 27.2792 16.3761 27.2292C16.2599 27.1833 16.1438 27.1292 16.0276 27.0792C15.9114 27.025 15.7994 26.9708 15.6874 26.9125C15.5671 26.85 15.4468 26.7875 15.3306 26.7167L15.0443 26.5417C14.9199 26.4625 14.7954 26.3833 14.6751 26.2958C14.6004 26.2417 14.5258 26.1833 14.4511 26.1292C14.3183 26.0292 14.1897 25.9292 14.0652 25.8208L13.9283 25.6958C12.4949 24.4084 11.553 22.6595 11.2649 20.75C11.2026 20.3417 11.1612 19.925 11.1612 19.5C11.1612 14.9042 14.8825 11.1667 19.4586 11.1667C24.0346 11.1667 27.756 14.9042 27.756 19.5C27.756 19.925 27.7145 20.3417 27.6523 20.75H27.644Z" fill="url(#paint1_linear_2002_45)"/>
<path d="M11.9825 19.5C11.9825 19.925 12.0282 20.3416 12.0946 20.75H13.4885C13.7416 20.75 13.949 20.525 13.949 20.25C13.949 19.9416 13.9781 19.6458 14.0196 19.35L12.0489 18.5875C12.0116 18.8875 11.9867 19.1916 11.9867 19.5041L11.9825 19.5ZM12.1941 17.75L14.1814 18.5208C14.3224 18.0041 14.534 17.5208 14.7912 17.0708L13.028 15.7041C12.6588 16.3333 12.3725 17.0208 12.1983 17.75H12.1941ZM13.4844 15.0083L15.2559 16.3791C15.6334 15.8916 16.0815 15.4708 16.5835 15.1333L15.5795 13.0958C14.7663 13.5958 14.0527 14.2458 13.4844 15.0083ZM19.0353 12.0125C18.0687 12.0666 17.1477 12.3083 16.3138 12.7L17.3136 14.7333C17.8488 14.4833 18.4296 14.3291 19.0353 14.275V12.0125ZM22.5866 12.7041C21.7305 12.3058 20.8071 12.074 19.8651 12.0208V14.2708C20.4708 14.3208 21.0516 14.4833 21.5868 14.7333L22.5866 12.7041ZM23.3168 13.1L22.317 15.1375C22.819 15.4708 23.267 15.8958 23.6487 16.3791L25.4202 15.0041C24.8477 14.2416 24.1341 13.5958 23.321 13.0958L23.3168 13.1ZM25.8807 15.7L24.1134 17.0708C24.3415 17.4625 24.5241 17.8875 24.6651 18.3375L26.6648 17.5625C26.4904 16.9089 26.2279 16.2823 25.8849 15.7H25.8807ZM24.856 19.1541C24.9182 19.5083 24.9514 19.875 24.9514 20.25C24.9514 20.525 25.1547 20.75 25.4119 20.75H26.8059C26.8764 20.3416 26.9179 19.925 26.9179 19.5C26.9179 19.1208 26.8888 18.75 26.8308 18.3875L24.856 19.1541Z" fill="url(#paint2_linear_2002_45)"/>
<defs>
<linearGradient id="paint0_linear_2002_45" x1="7" y1="19.5" x2="31.8964" y2="19.5" gradientUnits="userSpaceOnUse">
<stop stop-color="#EA32D9"/>
<stop offset="1" stop-color="#004BED"/>
</linearGradient>
<linearGradient id="paint1_linear_2002_45" x1="7" y1="19.5" x2="31.8964" y2="19.5" gradientUnits="userSpaceOnUse">
<stop stop-color="#EA32D9"/>
<stop offset="1" stop-color="#004BED"/>
</linearGradient>
<linearGradient id="paint2_linear_2002_45" x1="7" y1="19.5" x2="31.8964" y2="19.5" gradientUnits="userSpaceOnUse">
<stop stop-color="#EA32D9"/>
<stop offset="1" stop-color="#004BED"/>
</linearGradient>
</defs>
</svg>
