<svg width="38" height="38" viewBox="0 0 38 38" fill="none" xmlns="http://www.w3.org/2000/svg">
<path d="M25.2261 25.5679C25.7588 25.5674 26.1924 25.1343 26.1924 24.6011C26.1924 24.0684 25.7588 23.6348 25.2256 23.6348C24.6929 23.6348 24.2593 24.0684 24.2593 24.6011C24.2593 25.1345 24.6928 25.5669 25.2261 25.5679ZM25.2261 27.0327C23.9517 27.0327 22.9141 28.0698 22.9141 29.3447V31.0605C23.65 31.3513 24.4343 31.5004 25.2256 31.5C26.0189 31.5 26.802 31.3513 27.5376 31.0605V29.3447C27.5376 28.0698 26.5005 27.0327 25.2261 27.0327Z" fill="url(#paint0_linear_2002_61)"/>
<path d="M25.2256 18.9512C23.7571 18.9512 22.405 19.4585 21.3348 20.3069L17.6696 16.7039C17.68 16.6909 17.6908 16.6782 17.7012 16.665C18.4205 15.7536 18.8723 14.6601 19.0061 13.5068H23.8882C24.2312 15.2757 25.791 16.6157 27.6587 16.6157C29.7769 16.6157 31.5 14.8926 31.5 12.7744C31.5 10.6562 29.7769 8.93311 27.6587 8.93311C25.791 8.93311 24.2312 10.273 23.8883 12.0419H19.0059C18.6418 8.92593 15.9861 6.5 12.7744 6.5C9.31445 6.5 6.5 9.31445 6.5 12.7744C6.5 14.7964 7.46045 16.6318 8.99756 17.7891V16.8936C8.99756 15.5107 9.74512 14.2998 10.8564 13.6416C10.5352 13.2295 10.3428 12.7119 10.3428 12.1499C10.3428 10.8091 11.4336 9.71875 12.7744 9.71875C14.1152 9.71875 15.2056 10.8091 15.2056 12.1499C15.2056 12.7119 15.0137 13.2295 14.6924 13.6416C15.5571 14.1538 16.2017 15.001 16.4448 16.0034C16.5749 16.5393 16.5508 16.849 16.5508 17.7896L20.2926 21.3525C19.5952 22.2388 19.1315 23.3169 18.9941 24.4932H14.1117C13.7688 22.7243 12.209 21.3843 10.3413 21.3843C8.22314 21.3843 6.5 23.1074 6.5 25.2256C6.5 27.3438 8.22314 29.0669 10.3413 29.0669C12.2089 29.0669 13.7687 27.727 14.1117 25.9581H18.9937C19.0918 26.801 19.36 27.6152 19.782 28.3513C20.2041 29.0875 20.7713 29.7303 21.4492 30.2407V29.3447C21.4492 27.9619 22.1963 26.751 23.3076 26.0928C22.9863 25.6807 22.7944 25.1631 22.7944 24.6011C22.7944 23.2607 23.8848 22.1699 25.2256 22.1699C26.5664 22.1699 27.6572 23.2607 27.6572 24.6011C27.6572 25.1631 27.4648 25.6807 27.1436 26.0928C28.2549 26.751 29.0024 27.9619 29.0024 29.3447V30.2402C29.7791 29.6553 30.4091 28.8978 30.8426 28.0274C31.276 27.1571 31.5011 26.1979 31.5 25.2256C31.5 21.7661 28.6855 18.9512 25.2256 18.9512Z" fill="url(#paint1_linear_2002_61)"/>
<path d="M13.7407 12.1499C13.7407 11.6167 13.3071 11.1836 12.7744 11.1836C12.2412 11.1836 11.8076 11.6167 11.8076 12.1499C11.8076 12.6826 12.2412 13.1162 12.7744 13.1162C13.3071 13.1162 13.7407 12.6826 13.7407 12.1499ZM10.4624 16.8936V18.6094C11.1972 18.8998 11.9802 19.0488 12.7744 19.0488C13.5729 19.0488 14.3559 18.898 15.0859 18.6094V16.8936C15.0859 15.6187 14.0493 14.5811 12.7744 14.5811C11.4995 14.5811 10.4624 15.6187 10.4624 16.8936Z" fill="url(#paint2_linear_2002_61)"/>
<defs>
<linearGradient id="paint0_linear_2002_61" x1="6.5" y1="19" x2="31.5" y2="19" gradientUnits="userSpaceOnUse">
<stop stop-color="#EA32D9"/>
<stop offset="1" stop-color="#004BED"/>
</linearGradient>
<linearGradient id="paint1_linear_2002_61" x1="6.5" y1="19" x2="31.5" y2="19" gradientUnits="userSpaceOnUse">
<stop stop-color="#EA32D9"/>
<stop offset="1" stop-color="#004BED"/>
</linearGradient>
<linearGradient id="paint2_linear_2002_61" x1="6.5" y1="19" x2="31.5" y2="19" gradientUnits="userSpaceOnUse">
<stop stop-color="#EA32D9"/>
<stop offset="1" stop-color="#004BED"/>
</linearGradient>
</defs>
</svg>
