<svg width="38" height="38" viewBox="0 0 38 38" fill="none" xmlns="http://www.w3.org/2000/svg">
<path fill-rule="evenodd" clip-rule="evenodd" d="M18.0466 17.6013H18.9534C19.5039 16.1451 20.643 14.9205 22.1455 14.1928L21.999 13.9532C21.7389 13.7713 21.4624 13.61 21.1726 13.4709L19.9881 15.4076C19.8309 15.6648 19.4403 15.686 19.2483 15.4568L18.5 14.6429L17.7517 15.4568C17.5597 15.6859 17.1691 15.6648 17.0119 15.4076L15.8274 13.4709C15.5376 13.61 15.2611 13.7713 15.001 13.9532L14.8544 14.1927C16.3569 14.9205 17.496 16.1451 18.0466 17.6013ZM19.9608 19.0348C19.9035 19.0351 19.8467 19.0236 19.7948 19.0013C19.7428 18.979 19.6968 18.9464 19.6602 18.9059C19.6236 18.8653 19.5973 18.8179 19.5831 18.7669C19.5689 18.7159 19.5672 18.6626 19.5781 18.6109C19.9121 16.997 21.0435 15.6422 22.5822 14.9044L23.7668 16.841C23.924 17.0983 24.3146 17.1194 24.5066 16.8903L25.2549 16.0764L26.0032 16.8903C26.1953 17.1194 26.5858 17.0983 26.743 16.841L27.9276 14.9044C29.4662 15.6422 30.5977 16.9969 30.9316 18.6109C30.9425 18.6625 30.9409 18.7158 30.9267 18.7668C30.9125 18.8178 30.8862 18.8653 30.8496 18.9059C30.813 18.9464 30.767 18.979 30.7151 19.0013C30.6631 19.0236 30.6063 19.035 30.549 19.0348L19.9608 19.0348ZM6.45109 19.0348C6.39371 19.0351 6.33699 19.0236 6.28501 19.0013C6.23303 18.979 6.18709 18.9464 6.15049 18.9059C6.11389 18.8653 6.08755 18.8179 6.07335 18.7669C6.05916 18.7159 6.05747 18.6626 6.06841 18.6109C6.40232 16.997 7.5338 15.6422 9.0725 14.9044L10.257 16.841C10.4142 17.0983 10.8048 17.1194 10.9968 16.8903L11.7451 16.0764L12.4934 16.8903C12.6855 17.1194 13.076 17.0983 13.2332 16.841L14.4178 14.9044C15.9564 15.6422 17.0879 16.9969 17.4218 18.6109C17.4327 18.6625 17.4311 18.7158 17.4169 18.7668C17.4027 18.8178 17.3763 18.8653 17.3398 18.9058C17.3032 18.9464 17.2572 18.979 17.2052 19.0013C17.1533 19.0236 17.0965 19.035 17.0392 19.0348L6.45109 19.0348ZM11.7452 8.43347C13.3587 8.43347 14.6668 9.63347 14.6668 11.1137C14.6668 12.594 13.3587 13.794 11.7452 13.794C10.1316 13.794 8.82357 12.5939 8.82357 11.1137C8.82357 9.63352 10.1316 8.43347 11.7452 8.43347ZM12.5533 14.3558C12.2855 14.3214 12.0155 14.3042 11.7452 14.3042C11.4709 14.3042 11.2011 14.3218 10.937 14.3558L11.7452 14.9299L12.5533 14.3558ZM9.96156 14.692L10.7185 15.9296L11.1076 15.5064L9.96156 14.692ZM12.7717 15.9296L13.5287 14.692L12.3826 15.5064L12.7717 15.9296ZM25.2549 8.43347C26.8685 8.43347 28.1765 9.63347 28.1765 11.1137C28.1765 12.594 26.8685 13.794 25.2549 13.794C23.6414 13.794 22.3333 12.594 22.3333 11.1137C22.3333 9.63347 23.6414 8.43347 25.2549 8.43347ZM26.063 14.3558C25.7953 14.3214 25.5253 14.3042 25.2549 14.3042C24.9806 14.3042 24.7108 14.3218 24.4468 14.3558L25.2549 14.9299L26.063 14.3558ZM23.4713 14.692L24.2283 15.9296L24.6174 15.5064L23.4713 14.692ZM26.2815 15.9296L27.0384 14.692L25.8923 15.5064L26.2815 15.9296ZM31 20.5327V22.0846L28.9286 22.816C28.6657 23.8284 28.2285 24.7958 27.6335 25.6818L28.5351 27.544L26.1427 29.7388L24.1134 28.9119C23.1474 29.458 22.0926 29.8591 20.9888 30.1002L20.1917 32H16.8083L16.011 30.0997C14.9075 29.8585 13.853 29.4575 12.8872 28.9116L10.8573 29.7387L8.46485 27.544L9.36615 25.6823C8.77095 24.7961 8.33368 23.8285 8.07082 22.8159L6 22.0846V20.5327H12.5995C12.5995 23.5225 15.241 25.9457 18.4999 25.9457C21.759 25.9457 24.4005 23.5225 24.4005 20.5327H31ZM14.6828 20.5327C14.6828 22.4676 16.3909 24.0345 18.4999 24.0345C20.609 24.0345 22.3171 22.4676 22.3171 20.5327H14.6828ZM18.5001 7C20.1136 7 21.4217 8.2 21.4217 9.68026C21.4217 11.1605 20.1136 12.3605 18.5001 12.3605C16.8865 12.3605 15.5784 11.1605 15.5784 9.68026C15.5784 8.2 16.8865 7 18.5001 7ZM19.3081 12.9223L18.5 13.4965L17.6919 12.9223C17.9559 12.8884 18.2257 12.8707 18.5 12.8707C18.7743 12.8707 19.0441 12.8884 19.3081 12.9223ZM16.7164 13.2586L17.8625 14.0729L17.4735 14.4962L16.7164 13.2586ZM19.5266 14.4962L19.1375 14.0729L20.2836 13.2586L19.5266 14.4962Z" fill="url(#paint0_linear_2002_22)"/>
<defs>
<linearGradient id="paint0_linear_2002_22" x1="6" y1="19.5" x2="31" y2="19.5" gradientUnits="userSpaceOnUse">
<stop stop-color="#EA32D9"/>
<stop offset="1" stop-color="#004BED"/>
</linearGradient>
</defs>
</svg>
