<svg width="38" height="38" viewBox="0 0 38 38" fill="none" xmlns="http://www.w3.org/2000/svg">
<path d="M11.0098 26.36C9.39253 24.6043 8.45032 22.3319 8.35073 19.9469C7.80104 19.9558 6.53852 19.9402 6 19.9469C6.10002 22.9555 7.28957 25.8254 9.34734 28.0225C9.72989 27.6489 10.6192 26.7444 11.0098 26.36ZM9.97748 28.6527C12.1746 30.7104 15.0445 31.8999 18.0531 32C18.0593 31.4659 18.0486 30.1963 18.0531 29.6493C15.6681 29.5497 13.3957 28.6075 11.64 26.9902L9.97748 28.6527ZM25.36 26.9902C23.6043 28.6075 21.3319 29.5497 18.9469 29.6493C18.9558 30.199 18.9402 31.4615 18.9469 32C21.9555 31.9 24.8254 30.7104 27.0225 28.6527C26.6489 28.2701 25.7444 27.3808 25.36 26.9902ZM28.6493 19.9469C28.5497 22.3319 27.6075 24.6043 25.9902 26.36C26.3857 26.743 27.267 27.6458 27.6527 28.0225C29.7104 25.8254 30.9 22.9555 31 19.9469C30.4659 19.9406 29.1963 19.9514 28.6493 19.9469ZM25.9902 12.64C27.6075 14.3957 28.5497 16.6681 28.6493 19.0531C29.199 19.0442 30.4615 19.0598 31 19.0531C30.9 16.0445 29.7104 13.1746 27.6527 10.9775C27.2701 11.3511 26.3808 12.2556 25.9902 12.64ZM27.0225 10.3473C24.8254 8.28961 21.9555 7.10006 18.9469 7C18.9406 7.53405 18.9514 8.80372 18.9469 9.35073C21.3319 9.45032 23.6043 10.3925 25.36 12.0098L27.0225 10.3473ZM11.64 12.0098C13.3957 10.3925 15.6681 9.45032 18.0531 9.35073C18.0442 8.80104 18.0598 7.53852 18.0531 7C15.0445 7.10006 12.1746 8.28961 9.97748 10.3473C10.3511 10.7299 11.2556 11.6192 11.64 12.0098ZM8.35073 19.0531C8.45032 16.6681 9.39253 14.3957 11.0098 12.64C10.6143 12.257 9.73302 11.3542 9.34734 10.9775C7.28957 13.1746 6.10002 16.0445 6 19.0531C6.53405 19.0593 7.80372 19.0486 8.35073 19.0531Z" fill="url(#paint0_linear_2002_50)"/>
<path d="M27.7693 19.5C27.7672 17.0424 26.79 14.6861 25.0522 12.9483C23.3144 11.2105 20.958 10.2333 18.5004 10.2311C6.20379 10.7379 6.20737 28.2639 18.5004 28.7689C20.958 28.7667 23.3144 27.7895 25.0522 26.0517C26.79 24.3139 27.7672 21.9576 27.7693 19.5ZM19.7563 19.9514H17.8882V21.3725H19.8903C20.0089 21.3725 20.1225 21.4196 20.2063 21.5034C20.2902 21.5873 20.3372 21.7009 20.3372 21.8194C20.3372 21.938 20.2902 22.0516 20.2063 22.1355C20.1225 22.2193 20.0089 22.2664 19.8903 22.2664H17.8882V24.13C17.8882 24.2485 17.8411 24.3622 17.7573 24.446C17.6735 24.5298 17.5598 24.5769 17.4413 24.5769C17.3228 24.5769 17.2091 24.5298 17.1253 24.446C17.0415 24.3622 16.9944 24.2485 16.9944 24.13V22.2664H14.9341C14.8156 22.2664 14.7019 22.2193 14.6181 22.1355C14.5343 22.0516 14.4872 21.938 14.4872 21.8194C14.4872 21.7009 14.5343 21.5873 14.6181 21.5034C14.7019 21.4196 14.8156 21.3725 14.9341 21.3725H16.9944V19.9514H14.9341C14.8156 19.9514 14.7019 19.9043 14.6181 19.8205C14.5343 19.7367 14.4872 19.623 14.4872 19.5045C14.4872 19.3859 14.5343 19.2723 14.6181 19.1885C14.7019 19.1046 14.8156 19.0576 14.9341 19.0576H16.9944V14.87C16.9947 14.7516 17.0419 14.6382 17.1257 14.5544C17.2094 14.4707 17.3229 14.4235 17.4413 14.4231H19.7518C23.4026 14.5545 23.4093 19.8119 19.7563 19.9514Z" fill="url(#paint1_linear_2002_50)"/>
<path d="M19.7503 15.317H17.8867V19.0576H19.7548C20.0004 19.0573 20.2436 19.0086 20.4704 18.9143C20.6972 18.8201 20.9032 18.6821 21.0766 18.5082C21.2501 18.3343 21.3876 18.128 21.4813 17.9009C21.5751 17.6739 21.6232 17.4306 21.6229 17.185C21.6226 16.9394 21.5739 16.6963 21.4796 16.4695C21.3854 16.2427 21.2474 16.0366 21.0735 15.8632C20.8996 15.6897 20.6933 15.5522 20.4662 15.4585C20.2392 15.3648 19.9959 15.3167 19.7503 15.317Z" fill="url(#paint2_linear_2002_50)"/>
<defs>
<linearGradient id="paint0_linear_2002_50" x1="6" y1="19.5" x2="31" y2="19.5" gradientUnits="userSpaceOnUse">
<stop stop-color="#EA32D9"/>
<stop offset="1" stop-color="#004BED"/>
</linearGradient>
<linearGradient id="paint1_linear_2002_50" x1="6" y1="19.5" x2="31" y2="19.5" gradientUnits="userSpaceOnUse">
<stop stop-color="#EA32D9"/>
<stop offset="1" stop-color="#004BED"/>
</linearGradient>
<linearGradient id="paint2_linear_2002_50" x1="6" y1="19.5" x2="31" y2="19.5" gradientUnits="userSpaceOnUse">
<stop stop-color="#EA32D9"/>
<stop offset="1" stop-color="#004BED"/>
</linearGradient>
</defs>
</svg>
