<svg width="50" height="50" viewBox="0 0 50 50" fill="none" xmlns="http://www.w3.org/2000/svg">
<path fill-rule="evenodd" clip-rule="evenodd" d="M14.7891 26.375L23.6266 35.2188C24.2375 35.8282 25.2266 35.8282 25.8359 35.2188C26.4469 34.6094 26.4469 33.6094 25.8359 33L19.3969 26.5625H35.9375C36.8016 26.5625 37.5 25.8594 37.5 25C37.5 24.1406 36.8016 23.4375 35.9375 23.4375H19.3969L25.8359 17C26.4469 16.3906 26.4469 15.4062 25.8359 14.7812C25.2266 14.1718 24.2375 14.1718 23.6266 14.7812L14.7891 23.625C14.4141 24 14.2969 24.5156 14.3828 25C14.2969 25.4844 14.4141 26 14.7891 26.375ZM25 0C38.8078 0 50 11.1875 50 25C50 38.8125 38.8078 50 25 50C11.1922 50 0 38.8125 0 25C0 11.1875 11.1922 0 25 0Z" fill="white"/>
</svg>
